<svg xmlns="http://www.w3.org/2000/svg" xmlns:xlink="http://www.w3.org/1999/xlink" viewBox="0 0 769.05 924.39"><defs><style>.cls-1,.cls-2{fill:none;}.cls-2{clip-rule:evenodd;}.cls-3,.cls-9{fill:#e8e8e8;}.cls-4{fill:#cecece;}.cls-5{fill:#9371b9;}.cls-6{clip-path:url(#clip-path);}.cls-18,.cls-7{fill:#8a25e7;}.cls-8{fill:#fff;}.cls-11,.cls-19,.cls-9{stroke:#fff;stroke-miterlimit:10;stroke-width:2px;}.cls-10{fill:url(#linear-gradient);}.cls-11,.cls-19{fill:#f9b83b;}.cls-12{fill:#731dce;}.cls-13,.cls-17{fill:#5e1cb5;}.cls-14{clip-path:url(#clip-path-2);}.cls-15{fill:url(#linear-gradient-2);}.cls-16{fill:#a25eea;}.cls-17,.cls-18,.cls-19,.cls-20{fill-rule:evenodd;}.cls-20{fill:#ffbf4e;}</style><clipPath id="clip-path" transform="translate(0 39.02)"><path class="cls-1" d="M387.32,623.28A17,17,0,0,0,395,636.56l252.79,146c4.22,2.44,7.67.45,7.67-4.42v-568a17,17,0,0,0-7.67-13.27L395,50.83c-4.22-2.43-7.67-.44-7.67,4.43Z"/></clipPath><linearGradient id="linear-gradient" x1="70.18" y1="266.24" x2="24.54" y2="187.19" gradientTransform="matrix(0.87, 0.5, 0, 1.15, 1.33, 52.32)" gradientUnits="userSpaceOnUse"><stop offset="0" stop-color="#e0c276"/><stop offset="0.08" stop-color="#e3c279"/><stop offset="0.17" stop-color="#d3b16a"/><stop offset="0.26" stop-color="#caa660"/><stop offset="0.35" stop-color="#e0c278"/><stop offset="0.45" stop-color="#d8b973"/><stop offset="0.53" stop-color="#eec977"/><stop offset="0.63" stop-color="#eed082"/><stop offset="0.72" stop-color="#dfc16c"/><stop offset="0.81" stop-color="#d0b168"/><stop offset="0.91" stop-color="#d7b866"/><stop offset="1" stop-color="#f8da8e"/></linearGradient><clipPath id="clip-path-2" transform="translate(0 39.02)"><path class="cls-2" d="M404,609,185.32,482.74c-7.42-4.28-13.48-14.77-13.46-23.33L367.91,339.55c0-8.56,6.06-12.05,13.48-7.76L600.66,458.4c7.41,4.28,11.78,16.89,11.77,25.45l-195,117.34C417.45,609.76,411.39,613.25,404,609Z"/></clipPath><linearGradient id="linear-gradient-2" x1="-959.65" y1="869.39" x2="-1024.87" y2="756.43" gradientTransform="matrix(0.87, -0.5, 1, 0.58, 470.36, -521.06)" xlink:href="#linear-gradient"/></defs><g id="Layer_2" data-name="Layer 2"><g id="Réteg_1" data-name="Réteg 1"><path class="cls-3" d="M369.73,613.44c0,17.8,12.62,39.64,28,48.55L645.15,804.81c15.42,8.91,28,1.62,28-16.17V208.31c0-17.79-12.61-39.64-28-48.54L397.76,16.94c-15.41-8.9-28-1.62-28,16.17Z" transform="translate(0 39.02)"/><path class="cls-4" d="M377.36,15.4v0c5.12-3.34,12.37-3.12,20.39,1.51L645.15,159.77c15.42,8.9,28,30.75,28,48.54V788.64c0,8.79-3.09,15-8.06,18l19.89-13h0c5.14-2.9,8.34-9.19,8.34-18.14V195.15c0-17.8-12.62-39.64-28-48.54L417.93,3.78c-8.05-4.64-15.3-4.85-20.42-1.49l0,0ZM664.91,806.76h0Z" transform="translate(0 39.02)"/><polygon class="cls-4" points="565.01 167.09 494.36 126.31 494.36 130.97 565.01 171.76 565.01 167.09"/><path class="cls-4" d="M480.69,81.72a12,12,0,0,0-5.42-9.39c-3-1.73-5.43-.32-5.43,3.13a12,12,0,0,0,5.43,9.39C478.26,86.58,480.69,85.18,480.69,81.72Z" transform="translate(0 39.02)"/><path class="cls-4" d="M665.32,146.61,417.92,3.78c-8-4.64-15.29-4.85-20.42-1.49v0L377.36,15.4v0c5.12-3.34,12.37-3.12,20.39,1.51L645.15,159.77c9.49,5.48,17.91,15.88,23,27.21l21.35-10.32C684.61,164.25,675.6,152.55,665.32,146.61Z" transform="translate(0 39.02)"/><path class="cls-5" d="M387.32,623.28A17,17,0,0,0,395,636.56l252.79,146c4.22,2.44,7.67.45,7.67-4.42v-568a17,17,0,0,0-7.67-13.27L395,50.83c-4.22-2.43-7.67-.44-7.67,4.43Z" transform="translate(0 39.02)"/><g class="cls-6"><path class="cls-7" d="M554.28,749.51,515.56,727v4.17l42.93,24.91V705.59l93.84,54.47,67.48-27.79V642.79L757.54,631V492.05l-37.73-55.62V347L652.33,240.82l-93.84-54.47V135.82L515.56,110.9v4.18l38.72,22.47v50.53L650.59,244l65,102.25v89.62l37.73,55.62v135.2l-37.73,11.82V728.1l-65,26.78L554.28,699ZM528.83,360,598.08,469l-69.25,28.53-96.48-56v33.91l4.2,2.44V448.09l94,54.57L604,472.4,530.57,356.88l-94-54.57V272.57l-4.2-2.44V304ZM363.46,50.19l-9.53,8.07L456.37,219.37l3-1.22-100-157.21,6.28-5.31,46.68,27.09V78.55Zm92.91,504.37-102.44,42.2,9.53,19.14,48.88,28.37V640.1L365.66,613l-6.28-12.59,100-41.18ZM340.84,344.88l-33.95-19.7v4.17l33.95,19.71Zm0-26.3-33.95-19.7v4.17l33.95,19.7Zm-33.95-46v4.17l33.95,19.71v-4.17Z" transform="translate(0 39.02)"/><ellipse class="cls-7" cx="515.56" cy="110.9" rx="8.6" ry="15.28" transform="translate(38.07 373.77) rotate(-37.26)"/><path class="cls-7" d="M422.83,267.33c0,6.31,5.15,14.42,11.51,18.11s11.51,1.57,11.51-4.74-5.15-14.42-11.51-18.11S422.83,261,422.83,267.33Z" transform="translate(0 39.02)"/><path class="cls-7" d="M422.83,471.05c0,6.31,5.15,14.42,11.51,18.11s11.51,1.56,11.51-4.75-5.15-14.41-11.51-18.1S422.83,464.74,422.83,471.05Z" transform="translate(0 39.02)"/><ellipse class="cls-7" cx="403.04" cy="635.46" rx="8.6" ry="15.28" transform="translate(-302.46 412.7) rotate(-37.26)"/><ellipse class="cls-7" cx="511.86" cy="726.97" rx="8.6" ry="15.28" transform="translate(-335.65 497.25) rotate(-37.26)"/><ellipse class="cls-7" cx="403.04" cy="73.77" rx="8.6" ry="15.28" transform="translate(37.59 298.07) rotate(-37.26)"/><ellipse class="cls-7" cx="306.89" cy="276.07" rx="8.6" ry="15.28" transform="translate(-104.5 281.15) rotate(-37.26)"/><path class="cls-7" d="M667.07,585v-36.8l33.28,19.32v-4.17l-33.28-19.32V521.92l33.28,19.32v-4.17l-33.28-19.32V495.62l22,12.75c1,5.89,5.66,12.66,11.31,16,6.36,3.69,11.51,1.56,11.51-4.75s-5.15-14.41-11.51-18.1c-5.62-3.27-10.29-2-11.3,2.73l-22-12.75V469.32l33.28,19.31v-4.17l-33.28-19.31V433L581.18,297.89,412.49,200l-103-162-3,1.22L410.75,203.14l168.69,97.91,83.43,131.22V580.85l-83.43,34.37L410.75,517.31l-96,39.55a24.68,24.68,0,0,0-7.83-7.61c-6.36-3.69-11.51-1.56-11.51,4.75s5.15,14.41,11.51,18.1,11.51,1.57,11.51-4.74a16.22,16.22,0,0,0-1.15-5.64l95.24-39.23L581.18,620.4ZM306.89,382l33.95,19.71v-4.17l-33.95-19.71Zm33.95-10.76-33.95-19.71v4.17l33.95,19.71Zm193,295.69v62.74l4.2,2.44V673.49L643.88,734.9,699.4,712V621.92l37.73-11.82V489.22L699.4,433.6V343.49l-55.52-87.32L538.07,194.76V136.19l-4.2-2.44v62.74l108.26,62.84,53.06,83.45V433l37.74,55.61V605.81l-37.74,11.82v90.23l-53.06,21.86ZM391.52,377.27v63.88c-4.59-1.17-7.91,1.19-7.91,6.25,0,6.31,5.15,14.42,11.51,18.11s11.51,1.56,11.51-4.74c0-6.11-4.83-13.89-10.9-17.73V383.88l117.93,68.45,32.62-13.44-32.62-51.31L395.73,319.13v-61.2l.52.33c6.36,3.69,11.52,1.56,11.52-4.74s-5.16-14.42-11.52-18.11-11.51-1.57-11.51,4.74c0,4.64,2.79,10.23,6.78,14.35v66.36l120.4,69.88,28.42,44.7-28.42,11.71ZM714,800.49a24,24,0,0,0,7,6.41c6.36,3.69,11.51,1.57,11.51-4.74s-5.15-14.41-11.51-18.1-11.51-1.57-11.51,4.74a17.09,17.09,0,0,0,1.71,7l-40.56,16.71-79.34-46.05v52.21L477.88,752.77V667c5,1.7,8.77-.62,8.77-6,0-6.31-5.15-14.42-11.51-18.11s-11.51-1.57-11.51,4.74c0,5.82,4.38,13.15,10,17.15V754.5l121.86,70.73V773l76.88,44.62ZM610.77,661.07,632.83,652a23.69,23.69,0,0,0,6.34,5.58c6.36,3.69,11.51,1.56,11.51-4.75s-5.15-14.41-11.51-18.1-11.51-1.57-11.51,4.74a17.88,17.88,0,0,0,2.15,7.88L609,655.89,485.7,584.3l-65.43,27v67l-123.2-71.51c-1.07-5.83-5.71-12.44-11.28-15.67-6.36-3.7-11.51-1.57-11.51,4.74s5.15,14.41,11.51,18.1c5.71,3.32,10.44,1.93,11.34-3l127.34,73.91V615.42l63-25.94ZM340.84,266l-33.95-19.71v4.17l33.95,19.71Zm71.5-203.51V58.3L352.8,23.74,327.42,45.21,428.31,203.89l3-1.22L332.88,47.9,355,29.19Zm16,475L327.42,579,352.8,630l59.54,34.55v-4.17L355,627.07l-22.12-44.39,98.4-40.54ZM613.59,136.12c6.36,3.69,11.51,1.56,11.51-4.75,0-.1,0-.21,0-.32l72.32,42,59.33,93.31v206l4.2,2.44V267.05l-61.79-97.18-75-43.52a25.58,25.58,0,0,0-10.59-13.08c-6.36-3.69-11.51-1.57-11.51,4.74S607.23,132.43,613.59,136.12Zm-306.7,72.31c-6.36-3.69-11.51-1.57-11.51,4.74s5.15,14.42,11.51,18.11c4.83,2.8,9,2.24,10.67-.95l23.28,13.51v-4.17l-22.44-13v-.12C318.4,220.22,313.25,212.12,306.89,208.43ZM279.21,484.52c0,6.31,5.16,14.41,11.52,18.1s11.51,1.57,11.51-4.74a17.41,17.41,0,0,0-1.87-7.31l62.76-25.85V202.49l-64-100.61c1.9-.94,3.08-3,3.08-6,0-6.3-5.16-14.41-11.51-18.1s-11.52-1.57-11.52,4.74,5.16,14.42,11.52,18.11a12.62,12.62,0,0,0,5,1.75l63.19,99.38V460.55l-61.46,25.32a23.82,23.82,0,0,0-6.74-6.09C284.37,476.08,279.21,478.21,279.21,484.52ZM757.54,644.67C751.18,641,746,643.1,746,649.41c0,6,4.73,13.72,10.71,17.6V855.75l-59.33,24.44-69.87-40.56c-.77-6-5.57-13.1-11.39-16.48-6.36-3.69-11.51-1.57-11.51,4.74s5.15,14.42,11.51,18.11c5.44,3.16,10,2,11.19-2.31l71.81,41.68,61.79-25.45V669c4.7,1.29,8.11-1.07,8.11-6.21C769.05,656.47,763.9,648.36,757.54,644.67Zm-282.4-493c6.36,3.69,11.51,1.57,11.51-4.74,0-5.37-3.74-12-8.77-16.18V45.6l113.45,65.85v52.21l79.34,46.06,40,62.93a7.58,7.58,0,0,0-1.16,4.31c0,6.3,5.16,14.41,11.51,18.1s11.51,1.57,11.51-4.74S727.39,275.9,721,272.21c-3-1.75-5.76-2.18-7.82-1.48l-40.8-64.18-76.88-44.62V109.72L473.67,39V128.1c-5.66-2.57-10-.33-10,5.49C463.63,139.89,468.78,148,475.14,151.69Zm-184.41-166c5,2.9,9.25,2.19,10.83-1.32l118.71,68.9v67l65.43,102.9L609,294.74l25.08,39.43a6.88,6.88,0,0,0-1.78,5.05c0,6.31,5.15,14.41,11.51,18.1s11.51,1.57,11.51-4.74-5.15-14.41-11.51-18.1a10.6,10.6,0,0,0-6.88-1.71l-26.19-41.19L487.44,220l-63-99V51.49l-122.25-71C302-25.72,297-33.59,290.73-37.21s-11.52-1.57-11.52,4.74S284.37-18,290.73-14.36Z" transform="translate(0 39.02)"/></g><path class="cls-4" d="M280,295.14v91.14c0,2.12-.74,3.74-2,4.48l-4.63,2.68c1.31-.75,2-2.37,2-4.49V297.82a15.35,15.35,0,0,0-6.94-12L97,186.8a7.1,7.1,0,0,0-2-.82,3.93,3.93,0,0,0-2.89.33l4.63-2.67c1.25-.72,3-.62,4.91.48l171.45,99A15.33,15.33,0,0,1,280,295.14Z" transform="translate(0 39.02)"/><path class="cls-8" d="M268.47,285.79,97,186.8a7.1,7.1,0,0,0-2-.82,3.93,3.93,0,0,0-2.89.33c-1.26.73-2,2.28-2,4.49V302.63a15.33,15.33,0,0,0,7,12l152.58,88.09c2.46,1.43,4.81,1.65,6.54.66l4.61-2.66,0,0,12.61-7.28c1.31-.75,2-2.37,2-4.49V297.82A15.35,15.35,0,0,0,268.47,285.79ZM214.84,343c0,2.12-.73,3.74-2,4.49l-14.44,8.34c-1.31.75-3.07.58-4.91-.49L109.79,307a15.35,15.35,0,0,1-6.94-12v-86.3c0-4.43,3.11-6.23,6.94-4l98.11,56.64a15.32,15.32,0,0,1,6.94,12Z" transform="translate(0 39.02)"/><path class="cls-4" d="M203,353.12l-4.63,2.67c-1.31.76-3.07.57-4.92-.48L109.79,307a15.31,15.31,0,0,1-6.93-12v-86.3c0-3.62,2.07-5.48,4.92-4.83a7.39,7.39,0,0,0-.3,2.15v86.3a15.33,15.33,0,0,0,6.94,12l83.66,48.3C199.93,353.69,201.69,353.87,203,353.12Z" transform="translate(0 39.02)"/><path class="cls-8" d="M151.44,293.91,53.33,237.26a7.41,7.41,0,0,0-2-.82,4,4,0,0,0-2.9.34c-1.25.72-2,2.28-2,4.49v86.3a15.37,15.37,0,0,0,6.94,12L137,387.9c1.84,1.06,3.6,1.24,4.91.48L156.38,380c1.28-.76,2-2.38,2-4.49V305.93A15.33,15.33,0,0,0,151.44,293.91Zm-95-42.42c0-3.61,2.07-5.47,4.93-4.83a7.68,7.68,0,0,1,2,.82l76,43.89a15.35,15.35,0,0,1,6.94,12v49.7c0,2.12-.71,3.73-2,4.49l-7.52,4.34c-1.3.76-3.07.58-4.92-.48L63.4,321.9a15.33,15.33,0,0,1-6.94-12Z" transform="translate(0 39.02)"/><path class="cls-4" d="M136.53,358.78,68,319.23a15.34,15.34,0,0,1-6.94-12V248.82a7.46,7.46,0,0,1,.3-2.16c-2.86-.64-4.93,1.22-4.93,4.83v58.38a15.33,15.33,0,0,0,6.94,12l68.5,39.55c1.85,1.06,3.62,1.24,4.92.48l4.63-2.67C140.14,360,138.38,359.84,136.53,358.78Z" transform="translate(0 39.02)"/><path class="cls-4" d="M163,303.26v69.62c0,2.12-.73,3.75-2,4.5l-4.6,2.66c1.28-.76,2-2.38,2-4.49V305.93a15.33,15.33,0,0,0-6.95-12L53.33,237.26a7.41,7.41,0,0,0-2-.82,4,4,0,0,0-2.9.34l4.63-2.67c1.26-.73,3-.63,4.91.48l98.11,56.65A15.34,15.34,0,0,1,163,303.26Z" transform="translate(0 39.02)"/><path class="cls-8" d="M89.89,336V385.7c0,2.12-.71,3.73-2,4.49l-7.52,4.34c-1.31.76-3.07.58-4.91-.48L6.94,354.49a15.34,15.34,0,0,1-6.94-12V284.09c0-2.22.78-3.77,2-4.49a3.92,3.92,0,0,1,2.9-.33,6.62,6.62,0,0,1,2,.81L83,324A15.35,15.35,0,0,1,89.89,336Z" transform="translate(0 39.02)"/><path class="cls-4" d="M94.52,333.32V383c0,2.13-.73,3.75-2,4.5l-4.61,2.66c1.3-.76,2-2.37,2-4.49V336A15.35,15.35,0,0,0,83,324l-76-43.89a6.62,6.62,0,0,0-2-.81,3.92,3.92,0,0,0-2.9.33l4.63-2.67c1.26-.73,3-.62,4.9.48l76,43.89A15.34,15.34,0,0,1,94.52,333.32Z" transform="translate(0 39.02)"/><path class="cls-9" d="M83.65,336.79c0-6.33-4.47-14.06-10-17.23L11,283.35C5.5,280.19,1,282.76,1,289.1v49.7C1,345.13,5.5,352.86,11,356l62.71,36.2c5.48,3.17,10,.59,10-5.74Z" transform="translate(0 39.02)"/><path class="cls-10" d="M2.43,289.9c0-2.57.86-4.42,2.26-5.38l26.22,15.15a3.28,3.28,0,0,1,1.15,1.21l5.59,9.67a3.36,3.36,0,0,1,.47,1.6V320c0,.59-.41.83-.93.54l-6.55-3.79a.64.64,0,0,0-.66-.06l-1.25.72a1.93,1.93,0,0,1-1.91-.19L2.43,303.13Zm0,14.83,26,15v19c0,.59-.41.83-.93.53L2.43,324.77Zm0,34.87V326.37l24.39,14.09a5.38,5.38,0,0,1,1.91,2L30,344.64a1.91,1.91,0,0,0,.66.69l6.55,3.79a2,2,0,0,1,.93,1.6v7.84a1.15,1.15,0,0,1-.47,1.05l-5.59,3.23a1.17,1.17,0,0,1-1.15-.12L4.69,347.58A17.26,17.26,0,0,1,2.43,339.6Zm71.27,51L11,354.43a16.29,16.29,0,0,1-4.67-4.3l24.59,14.2a2.15,2.15,0,0,0,2.13.21l5.59-3.23a2.11,2.11,0,0,0,.88-1.95v-7.84c0-.59.41-.83.92-.53l3.82,2.2a2,2,0,0,1,.93,1.6v7.85a6.09,6.09,0,0,0,.88,3l5.59,9.68a6,6,0,0,0,2.12,2.24l24.59,14.2A7,7,0,0,1,73.7,390.63Zm8.56-4.94c0,2.57-.86,4.42-2.26,5.37L53.77,375.92a3.26,3.26,0,0,1-1.14-1.21L47,365a3.22,3.22,0,0,1-.47-1.59v-7.85c0-.59.41-.83.92-.53l6.56,3.79a.65.65,0,0,0,.65.06l1.26-.72a1.86,1.86,0,0,1,1.9.19l24.4,14.08Zm0-14.83-25.11-14.5a2,2,0,0,1-.92-1.6v-17.1c0-1,.72-1.45,1.62-.94l24.41,14.1Zm0-21.64-24.41-14.1c-1.66-1-3-.18-3,1.74v19.26a.66.66,0,0,1-.27.6l-.44.26a.67.67,0,0,1-.66-.07L31.21,344.06a1.89,1.89,0,0,1-.65-.69l-.44-.76a1.94,1.94,0,0,1-.27-.92V319l1-.57,6.83,3.95c1,.59,1.85.11,1.85-1.07V313a6.12,6.12,0,0,0-.88-3L33,300.31a6.1,6.1,0,0,0-2.13-2.25L6.32,283.87A7,7,0,0,1,11,285l62.71,36.2a16,16,0,0,1,4.66,4.3l-24.59-14.2a2.11,2.11,0,0,0-2.12-.21l-5.59,3.22a2.11,2.11,0,0,0-.88,2v9.72a1.54,1.54,0,0,0,.69,1.2c.39.22.7,0,.7-.4V317a1.1,1.1,0,0,1,.47-1l5.59-3.23a1.12,1.12,0,0,1,1.14.11L80,328a17.26,17.26,0,0,1,2.26,8Z" transform="translate(0 39.02)"/><path class="cls-11" d="M2.43,289.9c0-2.57.86-4.42,2.26-5.38l26.22,15.15a3.28,3.28,0,0,1,1.15,1.21l5.59,9.67a3.36,3.36,0,0,1,.47,1.6V320c0,.59-.41.83-.93.54l-6.55-3.79a.64.64,0,0,0-.66-.06l-1.25.72a1.93,1.93,0,0,1-1.91-.19L2.43,303.13Zm0,14.83,26,15v19c0,.59-.41.83-.93.53L2.43,324.77Zm0,34.87V326.37l24.39,14.09a5.38,5.38,0,0,1,1.91,2L30,344.64a1.91,1.91,0,0,0,.66.69l6.55,3.79a2,2,0,0,1,.93,1.6v7.84a1.15,1.15,0,0,1-.47,1.05l-5.59,3.23a1.17,1.17,0,0,1-1.15-.12L4.69,347.58A17.26,17.26,0,0,1,2.43,339.6Zm71.27,51L11,354.43a16.29,16.29,0,0,1-4.67-4.3l24.59,14.2a2.15,2.15,0,0,0,2.13.21l5.59-3.23a2.11,2.11,0,0,0,.88-1.95v-7.84c0-.59.41-.83.92-.53l3.82,2.2a2,2,0,0,1,.93,1.6v7.85a6.09,6.09,0,0,0,.88,3l5.59,9.68a6,6,0,0,0,2.12,2.24l24.59,14.2A7,7,0,0,1,73.7,390.63Zm8.56-4.94c0,2.57-.86,4.42-2.26,5.37L53.77,375.92a3.26,3.26,0,0,1-1.14-1.21L47,365a3.22,3.22,0,0,1-.47-1.59v-7.85c0-.59.41-.83.92-.53l6.56,3.79a.65.65,0,0,0,.65.06l1.26-.72a1.86,1.86,0,0,1,1.9.19l24.4,14.08Zm0-14.83-25.11-14.5a2,2,0,0,1-.92-1.6v-17.1c0-1,.72-1.45,1.62-.94l24.41,14.1Zm0-21.64-24.41-14.1c-1.66-1-3-.18-3,1.74v19.26a.66.66,0,0,1-.27.6l-.44.26a.67.67,0,0,1-.66-.07L31.21,344.06a1.89,1.89,0,0,1-.65-.69l-.44-.76a1.94,1.94,0,0,1-.27-.92V319l1-.57,6.83,3.95c1,.59,1.85.11,1.85-1.07V313a6.12,6.12,0,0,0-.88-3L33,300.31a6.1,6.1,0,0,0-2.13-2.25L6.32,283.87A7,7,0,0,1,11,285l62.71,36.2a16,16,0,0,1,4.66,4.3l-24.59-14.2a2.11,2.11,0,0,0-2.12-.21l-5.59,3.22a2.11,2.11,0,0,0-.88,2v9.72a1.54,1.54,0,0,0,.69,1.2c.39.22.7,0,.7-.4V317a1.1,1.1,0,0,1,.47-1l5.59-3.23a1.12,1.12,0,0,1,1.14.11L80,328a17.26,17.26,0,0,1,2.26,8Z" transform="translate(0 39.02)"/><path class="cls-12" d="M400.14,326.8l17.63-10.15v0a.81.81,0,0,1,.88,0L639.44,444.18a3.12,3.12,0,0,1,1.3,2.49v41.68a1.22,1.22,0,0,1-.36,1h0l0,0-17.8,10.25-.14-20.14L418.65,361.87a3.12,3.12,0,0,1-1.31-2.5v-14.3Z" transform="translate(0 39.02)"/><path class="cls-7" d="M400.93,372.06l220.8,127.48c.72.41,1.3,0,1.3-1V456.87a3.11,3.11,0,0,0-1.3-2.49L400.93,326.9c-.72-.42-1.3,0-1.3,1v41.68A3.12,3.12,0,0,0,400.93,372.06Z" transform="translate(0 39.02)"/><path class="cls-13" d="M407.23,359.54l208.2,120.2c.49.29.89,0,.89-.67V468.6a2.16,2.16,0,0,0-.89-1.71l-208.2-120.2c-.49-.28-.89,0-.89.68v10.47A2.14,2.14,0,0,0,407.23,359.54Z" transform="translate(0 39.02)"/><path class="cls-12" d="M407.23,346.69l4.23,2.45v5.65a2.1,2.1,0,0,0,.9,1.7l204,117.76v4.82c0,.66-.4,1-.89.68L407.23,359.54a2.14,2.14,0,0,1-.89-1.7V347.37C406.34,346.71,406.74,346.41,407.23,346.69Z" transform="translate(0 39.02)"/><g class="cls-14"><path class="cls-4" d="M657.89,413.07v7.63c0,2.86-2,5.61-5.46,7.64l-218,125.88c-5.48,3.16-14.37,3.16-19.85,0l-138.36-79.9c-2.75-1.57-4.11-3.65-4.11-5.73V461a5.66,5.66,0,0,0,1.65,3.83,9.8,9.8,0,0,0,2.46,1.89l138.36,79.9c5.48,3.16,14.37,3.16,19.85,0l218-125.88C655.92,418.67,657.89,415.92,657.89,413.07Z" transform="translate(0 39.02)"/><path class="cls-8" d="M657.89,384.62v28.45c0,2.85-2,5.6-5.46,7.63l-218,125.88c-5.48,3.16-14.37,3.16-19.85,0l-138.36-79.9a9.8,9.8,0,0,1-2.46-1.89,5.66,5.66,0,0,1-1.65-3.83c0-2.07,1.36-4.14,4.11-5.73l245-141.44c5.47-3.16,14.36-3.16,19.84,0l112.76,65.1C656.43,380.42,657.89,382.48,657.89,384.62Z" transform="translate(0 39.02)"/><path class="cls-15" d="M336.19,459.63c-3.18-1.84-4.86-4.23-5-6.64l37.48-21.64a4.78,4.78,0,0,1,2.31-.55h16a4.75,4.75,0,0,1,2.31.55l9.71,5.61a.8.8,0,0,1,0,1.52l-9.37,5.41a1,1,0,0,0-.55.77v2.06a2.72,2.72,0,0,1-1.59,2.23l-34.86,20.12Zm18.35,10.59,37.2-21.47,23.47,13.55a.81.81,0,0,1,0,1.53l-35.87,20.71Zm43.15,24.91-16.37-9.45,34.86-20.12a7.9,7.9,0,0,1,3.86-.92h3.58a2.71,2.71,0,0,0,1.32-.32l9.37-5.41a2.92,2.92,0,0,1,2.64,0l9.71,5.6a1.64,1.64,0,0,1,1,1.34v9.22a1.61,1.61,0,0,1-1,1.33L409.18,498A24.57,24.57,0,0,1,397.69,495.13ZM511.76,443.4l-89.6,51.73a23.12,23.12,0,0,1-8.65,2.71l35.13-20.29a3,3,0,0,0,1.78-2.48v-9.22a3,3,0,0,0-1.78-2.48l-9.7-5.61a.8.8,0,0,1,0-1.52l5.45-3.15a2.94,2.94,0,0,1,2.65,0l9.7,5.6a8.79,8.79,0,0,0,4.3,1h16a8.73,8.73,0,0,0,4.29-1l35.14-20.28A10,10,0,0,1,511.76,443.4Zm0-14.13c3.18,1.84,4.86,4.23,5,6.64l-37.48,21.64a4.78,4.78,0,0,1-2.31.55H461a4.78,4.78,0,0,1-2.31-.55L449,451.94a.8.8,0,0,1,0-1.52l9.37-5.41a1,1,0,0,0,.55-.77v-2.06a2.72,2.72,0,0,1,1.59-2.23l34.86-20.12Zm-18.35-10.59-35.88,20.71a2.92,2.92,0,0,1-2.64,0l-21.16-12.22c-1.28-.73-1.28-1.93,0-2.67l34.88-20.14Zm-26.78-15.46-34.88,20.14c-2.37,1.37-2.37,3.59,0,5l23.83,13.76a1,1,0,0,1,.55.77v.72a.93.93,0,0,1-.55.77l-31.8,18.36a2.75,2.75,0,0,1-1.33.32H421.2a2.71,2.71,0,0,1-1.32-.32l-28.06-16.2v-1.62l9.76-5.63c1.46-.85,1.46-2.21,0-3.06l-10.37-6a8.79,8.79,0,0,0-4.3-1h-16a8.73,8.73,0,0,0-4.29,1l-35.14,20.28a10,10,0,0,1,4.68-5l89.6-51.73a22.93,22.93,0,0,1,8.65-2.7l-35.13,20.28a3,3,0,0,0-1.78,2.48v9.22a3,3,0,0,0,1.78,2.48l12,6.94a2.16,2.16,0,0,0,2,0,.6.6,0,0,0,0-1.14l-12-6.94a1.64,1.64,0,0,1-1-1.34v-9.22a1.61,1.61,0,0,1,1-1.33l37.48-21.64a24.57,24.57,0,0,1,11.49,2.91Z" transform="translate(0 39.02)"/><path class="cls-11" d="M336.19,459.63c-3.18-1.84-4.86-4.23-5-6.64l37.48-21.64a4.78,4.78,0,0,1,2.31-.55h16a4.75,4.75,0,0,1,2.31.55l9.71,5.61a.8.8,0,0,1,0,1.52l-9.37,5.41a1,1,0,0,0-.55.77v2.06a2.72,2.72,0,0,1-1.59,2.23l-34.86,20.12Zm18.35,10.59,37.2-21.47,23.47,13.55a.81.81,0,0,1,0,1.53l-35.87,20.71Zm43.15,24.91-16.37-9.45,34.86-20.12a7.9,7.9,0,0,1,3.86-.92h3.58a2.71,2.71,0,0,0,1.32-.32l9.37-5.41a2.92,2.92,0,0,1,2.64,0l9.71,5.6a1.64,1.64,0,0,1,1,1.34v9.22a1.61,1.61,0,0,1-1,1.33L409.18,498A24.57,24.57,0,0,1,397.69,495.13ZM511.76,443.4l-89.6,51.73a23.12,23.12,0,0,1-8.65,2.71l35.13-20.29a3,3,0,0,0,1.78-2.48v-9.22a3,3,0,0,0-1.78-2.48l-9.7-5.61a.8.8,0,0,1,0-1.52l5.45-3.15a2.94,2.94,0,0,1,2.65,0l9.7,5.6a8.79,8.79,0,0,0,4.3,1h16a8.73,8.73,0,0,0,4.29-1l35.14-20.28A10,10,0,0,1,511.76,443.4Zm0-14.13c3.18,1.84,4.86,4.23,5,6.64l-37.48,21.64a4.78,4.78,0,0,1-2.31.55H461a4.78,4.78,0,0,1-2.31-.55L449,451.94a.8.8,0,0,1,0-1.52l9.37-5.41a1,1,0,0,0,.55-.77v-2.06a2.72,2.72,0,0,1,1.59-2.23l34.86-20.12Zm-18.35-10.59-35.88,20.71a2.92,2.92,0,0,1-2.64,0l-21.16-12.22c-1.28-.73-1.28-1.93,0-2.67l34.88-20.14Zm-26.78-15.46-34.88,20.14c-2.37,1.37-2.37,3.59,0,5l23.83,13.76a1,1,0,0,1,.55.77v.72a.93.93,0,0,1-.55.77l-31.8,18.36a2.75,2.75,0,0,1-1.33.32H421.2a2.71,2.71,0,0,1-1.32-.32l-28.06-16.2v-1.62l9.76-5.63c1.46-.85,1.46-2.21,0-3.06l-10.37-6a8.79,8.79,0,0,0-4.3-1h-16a8.73,8.73,0,0,0-4.29,1l-35.14,20.28a10,10,0,0,1,4.68-5l89.6-51.73a22.93,22.93,0,0,1,8.65-2.7l-35.13,20.28a3,3,0,0,0-1.78,2.48v9.22a3,3,0,0,0,1.78,2.48l12,6.94a2.16,2.16,0,0,0,2,0,.6.6,0,0,0,0-1.14l-12-6.94a1.64,1.64,0,0,1-1-1.34v-9.22a1.61,1.61,0,0,1,1-1.33l37.48-21.64a24.57,24.57,0,0,1,11.49,2.91Z" transform="translate(0 39.02)"/></g><path class="cls-13" d="M316.18,109l-2.77,2v96.3c0,10.09,7.16,22.48,15.9,27.53l82.41,48,6.52-3.19a7.09,7.09,0,0,0,4-6.36v-92c0-10.09-7.19-22.42-16-27.41l-79.38-45.28A10,10,0,0,0,316.18,109Z" transform="translate(0 39.02)"/><path class="cls-16" d="M324.53,112c-8.78-5-16-.8-16,9.3v87.86c0,10.09,7.15,22.48,15.89,27.53l77,44.46c8.74,5,15.89.91,15.89-9.18V183.08c0-10.09-7.18-22.43-16-27.41Z" transform="translate(0 39.02)"/><polygon class="cls-17" points="350.36 181.93 355.13 179.17 358.66 181.21 386.89 197.49 387.47 197.86 388.04 198.29 388.58 198.77 389.11 199.29 389.61 199.86 390.08 200.46 390.52 201.1 390.92 201.76 391.29 202.44 391.62 203.14 391.91 203.85 392.15 204.56 392.34 205.28 392.49 206 392.57 206.7 392.6 207.39 392.63 285.3 392.52 286.56 392.18 287.6 391.65 288.42 390.96 288.99 386.19 291.75 386.88 291.17 387.41 290.36 387.75 289.31 387.86 288.05 387.83 210.14 387.8 209.45 387.71 208.75 387.57 208.03 387.38 207.32 387.14 206.6 386.85 205.89 386.52 205.19 386.15 204.51 385.75 203.85 385.31 203.22 384.84 202.61 384.34 202.05 383.81 201.52 383.26 201.04 382.7 200.62 382.12 200.25 353.89 183.96 350.36 181.93"/><path class="cls-18" d="M382.15,252.34l-46-26.54a12.68,12.68,0,0,1-5.71-9.9l0-57.38v-4.07l19.95-11.54,3.53,2,28.23,16.29a12.66,12.66,0,0,1,5.71,9.89l0,77.91C387.86,252.66,385.3,254.15,382.15,252.34Z" transform="translate(0 39.02)"/><polygon class="cls-19" points="341.23 256.14 377.06 276.83 377.06 242.88 341.23 222.2 341.23 256.14"/><path class="cls-17" d="M341.23,218.46l-1.15-.67V181.18l1.15.67,35.83,20.68,1.16.67v36.61l-1.16-.67-35.83-20.68Zm34.68-13.93-33.52-19.35v31.28l33.52,19.34Z" transform="translate(0 39.02)"/><polygon class="cls-20" points="341.23 244.83 350.19 250 350.19 261.31 341.23 256.14 341.23 244.83"/><path class="cls-17" d="M342.39,207.81v8.65l6.65,3.83v-8.64l-6.65-3.84Zm9,2.5v14l-1.16-.66-9-5.17-1.15-.67v-14l1.15.66,9,5.17Z" transform="translate(0 39.02)"/><polygon class="cls-20" points="359.15 255.17 350.19 250 350.19 261.31 359.15 266.48 359.15 255.17"/><path class="cls-17" d="M359.15,214.82l1.15.66v14l-1.15-.67-9-5.17L349,223V209l1.15.66,9,5.18Zm-7.8,6.81,6.64,3.83v-8.64L351.35,213Z" transform="translate(0 39.02)"/><polygon class="cls-20" points="377.06 265.51 368.1 260.34 368.1 271.66 377.06 276.83 377.06 265.51"/><path class="cls-17" d="M377.06,225.16l1.16.67v14l-1.16-.67-9-5.17L367,233.3v-14l1.15.67,9,5.17Zm-7.8,6.81,6.65,3.83v-8.64l-6.65-3.84Z" transform="translate(0 39.02)"/><polygon class="cls-20" points="359.15 255.17 368.1 260.34 368.1 271.66 359.15 266.48 359.15 255.17"/><path class="cls-17" d="M360.3,218.15v8.65l6.65,3.83V222l-6.65-3.84Zm9,2.5v14L368.1,234l-9-5.17-1.16-.67v-14l1.16.67,9,5.17Z" transform="translate(0 39.02)"/><polygon class="cls-20" points="341.23 222.2 350.19 227.37 350.19 238.69 341.23 233.51 341.23 222.2"/><path class="cls-17" d="M342.39,185.18v8.65l6.65,3.83V189l-6.65-3.84Zm9,2.5v14l-1.16-.67-9-5.17-1.15-.67v-14l1.15.67,9,5.17Z" transform="translate(0 39.02)"/><polygon class="cls-20" points="359.15 232.54 350.19 227.37 350.19 238.69 359.15 243.86 359.15 232.54"/><path class="cls-17" d="M359.15,192.19l1.15.67v14l-1.15-.67-9-5.17-1.15-.67v-14l1.15.67,9,5.17Zm-7.8,6.81,6.64,3.83v-8.64l-6.64-3.84Z" transform="translate(0 39.02)"/><polygon class="cls-20" points="359.15 232.54 368.1 237.71 368.1 249.03 359.15 243.86 359.15 232.54"/><path class="cls-17" d="M360.3,195.52v8.65L367,208v-8.65l-6.65-3.84Zm9,2.51v14l-1.16-.67-9-5.17L358,205.5v-14l1.16.67,9,5.17Z" transform="translate(0 39.02)"/><polygon class="cls-17" points="386.73 205.63 391.5 202.87 391.62 203.14 391.91 203.85 392.15 204.56 392.34 205.28 392.49 206 392.57 206.7 392.6 207.39 392.63 285.3 392.52 286.56 392.18 287.6 391.65 288.42 390.96 288.99 386.19 291.75 386.88 291.17 387.41 290.36 387.75 289.31 387.86 288.05 387.83 210.14 387.8 209.45 387.71 208.75 387.57 208.03 387.38 207.32 387.14 206.6 386.85 205.89 386.73 205.63"/><path class="cls-13" d="M561.05,209,762.38,93.33a4.32,4.32,0,0,0,2.48-3.6l0,0V78.63l-4.68,3.93L707.06,51.93c-4.33-2.49-10.86-2.75-14.61-.59L494.85,164.88l-6.24-3.6V172.5l0,0c0,1.64,1.21,3.34,3.54,4.68l54.27,31.27C550.77,210.92,557.31,211.18,561.05,209Z" transform="translate(0 39.02)"/><path class="cls-13" d="M760.21,82.56,707.06,51.93c-4.33-2.49-10.86-2.75-14.61-.59l-138.1,79.12v80a13.14,13.14,0,0,0,6.7-1.44L762.38,93.33a4.32,4.32,0,0,0,2.48-3.6l0,0V78.63Z" transform="translate(0 39.02)"/><path class="cls-5" d="M491.12,157.43,692.45,41.74c3.74-2.17,10.28-1.9,14.61.59L761.33,73.6c4.32,2.49,4.79,6.27,1,8.43L561.05,197.72c-3.74,2.17-10.28,1.9-14.6-.59l-54.27-31.27C487.86,163.37,487.38,159.59,491.12,157.43Z" transform="translate(0 39.02)"/><path class="cls-13" d="M457.65,736.34,645.29,628.52a4,4,0,0,0,2.3-3.35l0,0V614.82l-4.36,3.66-49.54-28.54c-4-2.32-10.12-2.57-13.61-.55L395.94,695.21l-5.81-3.35v10.45l0,0c0,1.52,1.13,3.12,3.3,4.37L444,735.79C448.07,738.11,454.16,738.36,457.65,736.34Z" transform="translate(0 39.02)"/><path class="cls-13" d="M643.26,618.48l-49.54-28.54c-4-2.32-10.12-2.57-13.61-.55L451.4,663.12v74.57a12.36,12.36,0,0,0,6.25-1.35L645.29,628.52a4,4,0,0,0,2.3-3.36l0,0V614.82Z" transform="translate(0 39.02)"/><path class="cls-5" d="M392.47,688.26,580.11,580.44c3.49-2,9.58-1.77,13.61.55l50.58,29.14c4,2.33,4.47,5.84,1,7.86L457.65,725.81c-3.49,2-9.59,1.77-13.62-.55l-50.57-29.14C389.43,693.8,389,690.28,392.47,688.26Z" transform="translate(0 39.02)"/><path class="cls-8" d="M446.39,694.74l-2.63-1.47,7.53-4.3,2.64,1.47Zm6.7.57-10.42-5.82,1.91-1.09L455,694.22Z" transform="translate(0 39.02)"/><path class="cls-8" d="M454,678.62l15.08,8.49-2.32,1.32-12-6.77-.07,0-.34,2.66-2.83-1.59.34-2.89Z" transform="translate(0 39.02)"/><path class="cls-8" d="M461.43,674.37l15.08,8.53-2.33,1.33-12.05-6.81-.06,0-.35,2.67-2.84-1.6.36-2.9Z" transform="translate(0 39.02)"/><path class="cls-8" d="M487.11,677.1a7.2,7.2,0,0,1-2,.72,9.5,9.5,0,0,1-2.65.1,14.45,14.45,0,0,1-3.27-.73,22.48,22.48,0,0,1-3.85-1.77,18.52,18.52,0,0,1-3.11-2.13,6.7,6.7,0,0,1-1.66-2,2.24,2.24,0,0,1-.18-1.73,2.67,2.67,0,0,1,1.31-1.37,6.31,6.31,0,0,1,2.55-.79,10.31,10.31,0,0,1,3,.13,11.26,11.26,0,0,1,2.91.94l-2.32,1.32a5.14,5.14,0,0,0-1.85-.4,2.83,2.83,0,0,0-1.52.36,1,1,0,0,0-.36,1.67,9.26,9.26,0,0,0,3,2.33l.07,0a2.05,2.05,0,0,1-.47-1,1.55,1.55,0,0,1,.24-1,2.46,2.46,0,0,1,.9-.8,5.36,5.36,0,0,1,2.38-.65,10.41,10.41,0,0,1,2.94.29,11.24,11.24,0,0,1,3,1.18,6.42,6.42,0,0,1,2.19,1.85,2.15,2.15,0,0,1,.4,1.89A2.83,2.83,0,0,1,487.11,677.1Zm-2.51-1.41a1.13,1.13,0,0,0,.62-.75,1.2,1.2,0,0,0-.28-.93,3.52,3.52,0,0,0-1.11-.91,6.43,6.43,0,0,0-1.59-.63,5.65,5.65,0,0,0-1.61-.16,2.92,2.92,0,0,0-1.32.35,1.22,1.22,0,0,0-.54.54,1,1,0,0,0,0,.67,2,2,0,0,0,.45.72,3.49,3.49,0,0,0,.88.66,5.65,5.65,0,0,0,1.57.62,5.85,5.85,0,0,0,1.64.16A2.92,2.92,0,0,0,484.6,675.69Z" transform="translate(0 39.02)"/><path class="cls-8" d="M489.91,672.26l-2.5-1.43-5.28-8.33,1.6-.92,3.48,2-.95.54,3.35,5.27.12.07,6.62-3.78,2.55,1.46Zm8-1.53-3.41-2-1.06-.66-10.56-6,2.21-1.27,15.07,8.65Z" transform="translate(0 39.02)"/><path class="cls-8" d="M511,663.49a7.69,7.69,0,0,1-2.75.91,9.89,9.89,0,0,1-3.07,0,9.19,9.19,0,0,1-2.89-1l2.39-1.36a4,4,0,0,0,1.24.4,4.42,4.42,0,0,0,1.31,0,3.62,3.62,0,0,0,1.16-.4,1.51,1.51,0,0,0,.7-.7.86.86,0,0,0-.05-.78,2.08,2.08,0,0,0-.82-.74,3.94,3.94,0,0,0-1.32-.48,4.35,4.35,0,0,0-1.44,0,3.91,3.91,0,0,0-1.37.47l-1,.6L500.74,659l1-.6a1.5,1.5,0,0,0,.7-.69.81.81,0,0,0-.05-.77,2,2,0,0,0-.81-.73,4.08,4.08,0,0,0-1.2-.46,3.67,3.67,0,0,0-1.23-.07,2.5,2.5,0,0,0-1.08.34,1.39,1.39,0,0,0-.65.64.78.78,0,0,0,0,.74,1.84,1.84,0,0,0,.74.73l-2.27,1.3a4.44,4.44,0,0,1-1.75-1.64,2,2,0,0,1-.12-1.73,3.34,3.34,0,0,1,1.5-1.51,6.68,6.68,0,0,1,2.61-.84,9.07,9.07,0,0,1,2.89.11,8.17,8.17,0,0,1,2.64,1,3,3,0,0,1,1.53,1.56,1.36,1.36,0,0,1-.46,1.49l.12.07a6.16,6.16,0,0,1,3-.41,7.39,7.39,0,0,1,3,1,4,4,0,0,1,1.73,1.63,2,2,0,0,1,0,1.79A3.81,3.81,0,0,1,511,663.49Z" transform="translate(0 39.02)"/><path class="cls-8" d="M517.65,656.45l-2.5-1.45-5.21-8.46,1.63-.93,3.48,2-1,.55,3.3,5.35.12.06,6.71-3.83,2.55,1.49Zm8.07-1.55-3.41-2-1.06-.67-10.56-6.14,2.25-1.29L528,653.6Z" transform="translate(0 39.02)"/><path class="cls-8" d="M531.46,651.63l-7.63-9.91-.11-.06-5.49,3.15-2.61-1.53,8-4.57,2.65,1.55,7.69,10Z" transform="translate(0 39.02)"/><path class="cls-8" d="M541.08,646.16l-7.61-10-.1-.06-5.52,3.16-2.61-1.53,8-4.6,2.65,1.56,7.66,10Z" transform="translate(0 39.02)"/><path class="cls-8" d="M550.83,637.55l-2.51-1.48-5.11-8.61,1.65-1,3.48,2.06-1,.56,3.25,5.45.12.07,6.83-3.9,2.54,1.51ZM559,636l-3.4-2-1.06-.68L544,627l2.29-1.31,15,8.93Z" transform="translate(0 39.02)"/><path class="cls-8" d="M569.23,630.52a7.2,7.2,0,0,1-3.43.87,13.41,13.41,0,0,1-4.28-.67,22.2,22.2,0,0,1-4.78-2.2,14.64,14.64,0,0,1-3.64-2.82,3.33,3.33,0,0,1-1-2.49,2.73,2.73,0,0,1,1.59-2,7.17,7.17,0,0,1,3.42-.89,13.2,13.2,0,0,1,4.26.65,22.23,22.23,0,0,1,4.76,2.19,15.29,15.29,0,0,1,3.66,2.85,3.39,3.39,0,0,1,1.07,2.51A2.71,2.71,0,0,1,569.23,630.52ZM566.61,629c.66-.38.76-.93.29-1.68a10.34,10.34,0,0,0-3.31-2.66,20,20,0,0,0-3.12-1.55,8.7,8.7,0,0,0-2.48-.59,3.09,3.09,0,0,0-1.72.32c-.66.38-.76.94-.3,1.67a10.1,10.1,0,0,0,3.26,2.64,20,20,0,0,0,3.16,1.57,8.89,8.89,0,0,0,2.49.6A3.14,3.14,0,0,0,566.61,629Z" transform="translate(0 39.02)"/><path class="cls-8" d="M580.22,624.27a7.29,7.29,0,0,1-3.45.88,13.45,13.45,0,0,1-4.29-.68,22.26,22.26,0,0,1-4.78-2.21,15,15,0,0,1-3.63-2.83,3.35,3.35,0,0,1-1-2.52,2.82,2.82,0,0,1,1.61-2,7.21,7.21,0,0,1,3.43-.89,13.11,13.11,0,0,1,4.28.66,22,22,0,0,1,4.76,2.2,15.42,15.42,0,0,1,3.65,2.86,3.46,3.46,0,0,1,1.06,2.53A2.76,2.76,0,0,1,580.22,624.27Zm-2.63-1.58c.67-.38.77-.94.3-1.69a10.4,10.4,0,0,0-3.3-2.67,19.23,19.23,0,0,0-3.12-1.56,8.78,8.78,0,0,0-2.48-.59,3.1,3.1,0,0,0-1.74.31c-.66.38-.76,1-.3,1.69a10.16,10.16,0,0,0,3.25,2.65,20.61,20.61,0,0,0,3.16,1.58,8.54,8.54,0,0,0,2.5.6A3,3,0,0,0,577.59,622.69Z" transform="translate(0 39.02)"/><path class="cls-8" d="M591.27,618a7.4,7.4,0,0,1-3.47.89,13.31,13.31,0,0,1-4.3-.69,21.81,21.81,0,0,1-4.78-2.22,14.8,14.8,0,0,1-3.63-2.85,3.34,3.34,0,0,1-1-2.53,2.83,2.83,0,0,1,1.62-2,7.29,7.29,0,0,1,3.45-.9,13.1,13.1,0,0,1,4.28.67,21.21,21.21,0,0,1,4.76,2.21,15.3,15.3,0,0,1,3.66,2.88,3.45,3.45,0,0,1,1,2.55A2.77,2.77,0,0,1,591.27,618Zm-2.63-1.58c.67-.38.77-.95.31-1.7a10,10,0,0,0-3.3-2.69,19,19,0,0,0-3.12-1.57,8.43,8.43,0,0,0-2.48-.6,3.14,3.14,0,0,0-1.74.32c-.67.38-.77,1-.31,1.7a10.1,10.1,0,0,0,3.24,2.67,20.61,20.61,0,0,0,3.16,1.58,8.93,8.93,0,0,0,2.5.61A3.18,3.18,0,0,0,588.64,616.4Z" transform="translate(0 39.02)"/><path class="cls-8" d="M553.83,162.16l-3.1-1.69,8.73-5,3.1,1.69Zm7.83.65-12.26-6.7,2.21-1.26,12.26,6.7Z" transform="translate(0 39.02)"/><path class="cls-8" d="M579.81,153.83a8,8,0,0,1-2.34.82,11,11,0,0,1-3.09.12,17.35,17.35,0,0,1-3.81-.82,26.82,26.82,0,0,1-4.53-2,24.94,24.94,0,0,1-3.66-2.42,7.9,7.9,0,0,1-2-2.25,2.45,2.45,0,0,1-.26-2,3,3,0,0,1,1.48-1.57,7.25,7.25,0,0,1,2.94-.9A12.21,12.21,0,0,1,568,143a13.58,13.58,0,0,1,3.4,1.06l-2.65,1.52a6,6,0,0,0-2.16-.46,3.4,3.4,0,0,0-1.76.41,1.14,1.14,0,0,0-.37,1.91,11,11,0,0,0,3.5,2.65l.09-.05a2.29,2.29,0,0,1-.58-1.18,1.69,1.69,0,0,1,.25-1.11,2.87,2.87,0,0,1,1-.91,6.16,6.16,0,0,1,2.75-.74,11.75,11.75,0,0,1,3.43.32,13.55,13.55,0,0,1,3.46,1.34,7.71,7.71,0,0,1,2.6,2.1,2.5,2.5,0,0,1,.52,2.16A3.24,3.24,0,0,1,579.81,153.83Zm-2.95-1.61a1.21,1.21,0,0,0,.7-.86,1.38,1.38,0,0,0-.35-1.05,4.34,4.34,0,0,0-1.32-1,7.09,7.09,0,0,0-1.86-.71,6.77,6.77,0,0,0-1.87-.18,3.31,3.31,0,0,0-1.52.4,1.32,1.32,0,0,0-.62.62,1,1,0,0,0,0,.76,2.24,2.24,0,0,0,.53.82,4.91,4.91,0,0,0,1,.76,7.34,7.34,0,0,0,1.85.69,6.67,6.67,0,0,0,1.9.19A3.32,3.32,0,0,0,576.86,152.22Z" transform="translate(0 39.02)"/><path class="cls-8" d="M582.93,148.31,580,146.68l-6.36-9.48,1.83-1,4.1,2.26-1.09.62,4,6,.14.08,7.57-4.32,3,1.66Zm9.23-1.77-4-2.21-1.26-.75-12.43-6.87,2.54-1.45,17.74,9.81Z" transform="translate(0 39.02)"/><path class="cls-8" d="M607.2,138.27a9,9,0,0,1-3.17,1,11.89,11.89,0,0,1-3.57,0,10.83,10.83,0,0,1-3.37-1.14l2.73-1.56a4.75,4.75,0,0,0,3,.44,3.8,3.8,0,0,0,1.34-.46,1.69,1.69,0,0,0,.8-.79,1,1,0,0,0-.09-.89,2.5,2.5,0,0,0-1-.84,5,5,0,0,0-1.55-.54,5.2,5.2,0,0,0-1.67,0,4.31,4.31,0,0,0-1.57.54l-1.2.68-2.75-1.53,1.2-.68a1.69,1.69,0,0,0,.79-.78,1,1,0,0,0-.08-.88,2.58,2.58,0,0,0-1-.83,5.05,5.05,0,0,0-1.4-.53,4.68,4.68,0,0,0-1.44-.07,3.17,3.17,0,0,0-1.24.39,1.63,1.63,0,0,0-.73.72.92.92,0,0,0,0,.85,2.19,2.19,0,0,0,.89.83l-2.6,1.48a5.29,5.29,0,0,1-2.08-1.86,2.24,2.24,0,0,1-.18-2,3.63,3.63,0,0,1,1.7-1.72,8,8,0,0,1,3-1,11.18,11.18,0,0,1,3.36.12,9.83,9.83,0,0,1,3.08,1.1,3.6,3.6,0,0,1,1.82,1.76,1.52,1.52,0,0,1-.48,1.71l.13.08a7.25,7.25,0,0,1,3.52-.48,8.87,8.87,0,0,1,3.49,1.11,4.88,4.88,0,0,1,2.06,1.86,2.19,2.19,0,0,1,.09,2A4.2,4.2,0,0,1,607.2,138.27Z" transform="translate(0 39.02)"/><path class="cls-8" d="M614.66,130.26l-2.95-1.65-6.29-9.6,1.86-1.06,4.09,2.3-1.09.62,4,6.07.14.08,7.66-4.37,3,1.69Zm9.3-1.79-4-2.24-1.26-.76-12.42-7,2.56-1.46L626.58,127Z" transform="translate(0 39.02)"/><path class="cls-8" d="M630.52,124.75l-9.17-11.22-.12-.07L615,117l-3.07-1.72,9.1-5.2,3.11,1.75,9.23,11.28Z" transform="translate(0 39.02)"/><path class="cls-8" d="M641.48,118.52l-9.14-11.27-.12-.07-6.28,3.59L622.86,109l9.14-5.22,3.11,1.76,9.21,11.33Z" transform="translate(0 39.02)"/><path class="cls-8" d="M652.47,108.75l-2.94-1.67-6.21-9.74,1.88-1.07,4.09,2.32-1.11.64,3.94,6.16.14.07L660,101l3,1.7Zm9.39-1.81-4-2.27-1.25-.77-12.42-7.05,2.6-1.49,17.73,10.07Z" transform="translate(0 39.02)"/><path class="cls-8" d="M673.52,100.75a8.3,8.3,0,0,1-3.94,1,16.32,16.32,0,0,1-5-.76,26.89,26.89,0,0,1-5.6-2.47,18.12,18.12,0,0,1-4.31-3.18,3.82,3.82,0,0,1-1.29-2.82,3,3,0,0,1,1.77-2.23,8.34,8.34,0,0,1,3.92-1A15.74,15.74,0,0,1,664,90a26.18,26.18,0,0,1,5.58,2.46A18.16,18.16,0,0,1,674,95.68a3.91,3.91,0,0,1,1.32,2.84A2.93,2.93,0,0,1,673.52,100.75ZM670.43,99c.75-.43.84-1.06.27-1.9a12.17,12.17,0,0,0-3.92-3,24.2,24.2,0,0,0-3.66-1.75,10.77,10.77,0,0,0-2.89-.66,3.67,3.67,0,0,0-2,.36c-.75.43-.84,1.06-.28,1.89a12,12,0,0,0,3.86,3,24.67,24.67,0,0,0,3.71,1.76,10.37,10.37,0,0,0,2.9.68A3.7,3.7,0,0,0,670.43,99Z" transform="translate(0 39.02)"/><path class="cls-8" d="M686,93.67a8.34,8.34,0,0,1-4,1,16.38,16.38,0,0,1-5-.76,27.25,27.25,0,0,1-5.6-2.48,18.09,18.09,0,0,1-4.3-3.2,3.84,3.84,0,0,1-1.29-2.83,3,3,0,0,1,1.78-2.25,8.3,8.3,0,0,1,3.94-1,15.77,15.77,0,0,1,5,.73,26.75,26.75,0,0,1,5.58,2.47,18.07,18.07,0,0,1,4.33,3.23,3.93,3.93,0,0,1,1.32,2.85A3,3,0,0,1,686,93.67Zm-3.09-1.78c.75-.43.85-1.06.28-1.9a12,12,0,0,0-3.92-3,23.75,23.75,0,0,0-3.66-1.75,10.45,10.45,0,0,0-2.89-.67,3.63,3.63,0,0,0-2,.37c-.75.43-.84,1.06-.28,1.9a12.18,12.18,0,0,0,3.85,3A24.81,24.81,0,0,0,678,91.58a10.31,10.31,0,0,0,2.9.67A3.56,3.56,0,0,0,682.9,91.89Z" transform="translate(0 39.02)"/><path class="cls-8" d="M698.52,86.55a8.42,8.42,0,0,1-4,1,15.79,15.79,0,0,1-5-.76A27.32,27.32,0,0,1,684,84.3a17.9,17.9,0,0,1-4.31-3.21,3.84,3.84,0,0,1-1.27-2.85,3.07,3.07,0,0,1,1.8-2.26,8.42,8.42,0,0,1,3.94-1,16.12,16.12,0,0,1,5,.74,26.37,26.37,0,0,1,5.58,2.49A18.07,18.07,0,0,1,699,81.43a3.94,3.94,0,0,1,1.31,2.86A3,3,0,0,1,698.52,86.55Zm-3.09-1.78c.76-.43.85-1.07.29-1.92a12.43,12.43,0,0,0-3.92-3,23.89,23.89,0,0,0-3.66-1.76,10.53,10.53,0,0,0-2.89-.67,3.66,3.66,0,0,0-2,.37c-.75.43-.85,1.07-.29,1.91a12,12,0,0,0,3.85,3,24,24,0,0,0,3.71,1.78,10.35,10.35,0,0,0,2.91.68A3.58,3.58,0,0,0,695.43,84.77Z" transform="translate(0 39.02)"/></g></g></svg>